<?xml version="1.0" standalone="no"?>
<!DOCTYPE svg PUBLIC "-//W3C//DTD SVG 20010904//EN"
 "http://www.w3.org/TR/2001/REC-SVG-20010904/DTD/svg10.dtd">
<svg version="1.0" xmlns="http://www.w3.org/2000/svg"
 width="900.000000pt" height="900.000000pt" viewBox="0 0 900.000000 900.000000"
 preserveAspectRatio="xMidYMid meet">
<metadata>
Created by potrace 1.14, written by Peter Selinger 2001-2017
</metadata>
<g transform="translate(0.000000,900.000000) scale(0.100000,-0.100000)"
fill="#000000" stroke="none">
<path d="M670 5731 l0 -778 53 -7 c28 -3 96 -6 150 -6 l97 0 0 650 0 650 310
0 310 0 0 135 0 135 -460 0 -460 0 0 -779z"/>
<path d="M2074 6500 c-125 -18 -223 -75 -271 -157 -25 -43 -28 -57 -28 -138 0
-81 3 -95 29 -143 63 -113 187 -173 454 -218 l103 -18 -7 -30 c-10 -47 -22
-65 -57 -86 -66 -41 -163 -17 -195 47 l-20 38 -141 -6 c-78 -4 -145 -9 -148
-13 -11 -11 26 -113 61 -163 42 -61 114 -116 191 -145 51 -20 78 -23 190 -23
112 0 138 4 186 23 112 45 195 150 218 276 6 33 11 145 11 248 0 112 4 197 10
209 8 14 21 19 55 19 l45 0 0 130 0 130 -66 0 c-82 0 -153 -34 -186 -89 -12
-20 -23 -38 -25 -40 -2 -3 -19 14 -37 35 -45 53 -136 100 -216 113 -71 12 -82
12 -156 1z m211 -268 c36 -21 75 -93 75 -140 0 -31 -2 -33 -27 -28 -16 3 -57
10 -92 16 -81 14 -139 37 -151 61 -14 25 -12 62 3 83 28 38 132 42 192 8z"/>
<path d="M6761 6499 c-71 -12 -164 -63 -207 -113 -18 -21 -35 -38 -37 -35 -1
2 -14 21 -27 41 -38 57 -103 88 -184 88 l-66 0 0 -130 0 -130 45 0 c34 0 47
-5 55 -19 6 -12 10 -97 10 -209 0 -103 5 -215 11 -248 23 -126 106 -231 218
-276 48 -19 74 -23 186 -23 112 0 139 3 190 23 77 29 149 84 191 145 35 50 72
152 61 163 -3 4 -70 9 -148 13 l-141 6 -20 -38 c-32 -64 -129 -88 -195 -47
-35 21 -47 39 -57 86 l-7 30 103 18 c267 45 391 105 454 218 26 48 29 62 29
143 0 81 -3 95 -28 138 -54 91 -166 149 -312 160 -38 3 -94 1 -124 -4z m131
-260 c22 -12 32 -50 24 -85 -8 -31 -64 -58 -156 -74 -36 -6 -77 -13 -92 -16
-26 -5 -28 -3 -28 28 0 38 29 107 53 127 46 38 147 48 199 20z"/>
<path d="M7410 6375 l0 -135 310 0 310 0 0 -650 0 -650 150 0 150 0 0 785 0
785 -460 0 -460 0 0 -135z"/>
<path d="M2960 6350 l0 -130 120 0 120 0 0 -250 0 -250 -120 0 -120 0 0 -130
0 -130 209 0 209 0 7 86 c8 87 8 87 22 53 8 -19 31 -51 51 -72 52 -54 106 -67
274 -67 l139 0 -3 128 -3 127 -140 5 c-152 5 -177 13 -212 67 -15 23 -18 57
-21 230 l-3 203 145 0 146 0 0 130 0 130 -410 0 -410 0 0 -130z"/>
<path d="M5220 6350 l0 -130 146 0 145 0 -3 -203 c-3 -173 -6 -207 -21 -230
-35 -54 -60 -62 -212 -67 l-140 -5 -3 -127 -3 -128 139 0 c168 0 222 13 274
67 20 21 43 53 51 72 14 34 14 34 22 -53 l7 -86 209 0 209 0 0 130 0 130 -120
0 -120 0 0 250 0 250 120 0 120 0 0 130 0 130 -410 0 -410 0 0 -130z"/>
<path d="M4149 6392 c-63 -33 -108 -88 -140 -169 -28 -72 -39 -283 -19 -372
37 -170 163 -304 308 -327 l42 -7 0 50 c0 28 3 97 6 154 l7 104 -44 20 c-62
28 -81 69 -77 162 7 154 92 153 136 -2 11 -38 30 -104 42 -145 45 -153 129
-273 216 -306 54 -21 173 -15 222 10 83 43 158 157 183 275 6 31 10 103 7 166
-4 98 -8 118 -35 178 -54 114 -155 202 -261 225 -52 12 -50 17 -54 -170 l-3
-137 38 -15 c44 -17 67 -61 67 -131 0 -111 -84 -155 -129 -66 -10 20 -31 88
-46 153 -32 141 -69 222 -131 288 -65 69 -112 90 -206 90 -63 0 -84 -5 -129
-28z"/>
<path d="M4634 5276 c-3 -8 -131 -365 -284 -793 l-278 -778 135 -3 c75 -1 138
-1 140 2 8 8 563 1559 563 1573 0 20 -268 19 -276 -1z"/>
<path d="M3410 4851 l-435 -177 0 -183 0 -183 430 -174 c237 -96 438 -177 448
-180 16 -5 17 6 17 136 l0 141 -52 23 c-29 13 -168 69 -308 126 -140 56 -258
105 -263 109 -4 4 134 63 305 132 l313 125 3 142 c2 110 0 142 -10 141 -7 0
-209 -80 -448 -178z"/>
<path d="M5132 4889 l3 -143 313 -125 c171 -69 309 -128 305 -132 -5 -4 -123
-53 -263 -109 -140 -57 -279 -113 -307 -126 l-53 -23 0 -141 c0 -130 1 -141
18 -136 9 3 211 84 447 180 l430 174 0 183 0 183 -425 173 c-234 95 -435 176
-448 179 l-23 6 3 -143z"/>
<path d="M670 3275 l0 -785 460 0 460 0 0 135 0 135 -310 0 -310 0 0 650 0
650 -150 0 -150 0 0 -785z"/>
<path d="M8030 3410 l0 -650 -310 0 -310 0 0 -135 0 -135 460 0 460 0 0 785 0
785 -150 0 -150 0 0 -650z"/>
<path d="M2097 3550 c-150 -38 -276 -161 -303 -297 -6 -30 -5 -30 43 -36 26
-4 93 -7 147 -8 l99 -2 19 37 c33 63 130 86 195 46 35 -21 47 -39 57 -86 l7
-30 -103 -18 c-267 -45 -391 -105 -454 -218 -26 -48 -29 -62 -29 -143 0 -81 3
-95 28 -138 51 -87 161 -145 304 -162 122 -14 270 38 339 119 18 21 35 38 37
35 1 -2 14 -21 27 -41 38 -57 103 -88 184 -88 l66 0 0 130 0 130 -45 0 c-34 0
-47 5 -55 19 -6 12 -10 97 -10 209 0 103 -5 215 -11 248 -23 126 -107 232
-218 275 -44 18 -81 23 -171 25 -63 2 -132 -1 -153 -6z m263 -643 c0 -49 -39
-118 -80 -142 -40 -22 -131 -26 -168 -6 -25 13 -37 50 -28 87 9 33 65 58 171
77 111 20 105 21 105 -16z"/>
<path d="M6608 3541 c-104 -34 -165 -86 -212 -179 -36 -72 -46 -147 -46 -354
0 -112 -4 -197 -10 -209 -8 -14 -21 -19 -55 -19 l-45 0 0 -130 0 -130 66 0
c81 0 146 31 184 88 13 20 26 39 27 41 2 3 19 -14 37 -35 151 -176 529 -151
643 43 25 43 28 57 28 138 0 81 -3 95 -29 143 -63 113 -187 173 -454 218
l-103 18 7 30 c10 47 22 65 57 86 66 41 163 17 195 -47 l20 -38 141 6 c78 4
145 9 148 13 11 11 -26 113 -61 163 -40 59 -112 114 -185 144 -80 31 -271 37
-353 10z m152 -621 c92 -16 148 -43 156 -74 9 -37 -3 -74 -28 -87 -37 -20
-128 -16 -168 6 -41 24 -80 93 -80 143 0 31 2 33 28 28 15 -3 56 -10 92 -16z"/>
<path d="M2960 3410 l0 -130 120 0 120 0 0 -250 0 -250 -120 0 -120 0 0 -130
0 -130 410 0 410 0 0 130 0 130 -146 0 -145 0 3 203 c3 173 6 207 21 230 35
54 60 62 212 67 l140 5 3 128 3 127 -139 0 c-168 0 -222 -13 -274 -67 -20 -21
-43 -53 -51 -72 -14 -34 -14 -34 -22 53 l-7 86 -209 0 -209 0 0 -130z"/>
<path d="M5132 3413 l3 -128 140 -5 c152 -5 177 -13 212 -67 15 -23 18 -57 21
-230 l3 -203 -145 0 -146 0 0 -130 0 -130 410 0 410 0 0 130 0 130 -120 0
-120 0 0 250 0 250 120 0 120 0 0 130 0 130 -209 0 -209 0 -7 -86 c-8 -87 -8
-87 -22 -53 -8 19 -31 51 -51 72 -52 54 -106 67 -274 67 l-139 0 3 -127z"/>
<path d="M4253 3466 c-126 -40 -229 -164 -263 -317 -20 -89 -9 -300 19 -372
32 -81 77 -136 140 -169 45 -23 66 -28 129 -28 94 0 141 21 206 90 62 66 99
147 131 288 15 65 36 133 46 153 19 37 53 55 84 43 42 -16 59 -121 30 -190
-10 -26 -25 -40 -52 -50 l-38 -15 3 -137 c4 -187 2 -182 54 -170 106 23 207
111 261 225 27 60 31 80 35 178 3 63 -1 135 -7 166 -25 118 -100 232 -183 275
-49 25 -168 31 -222 10 -87 -33 -171 -153 -215 -304 -12 -40 -30 -105 -42
-144 -31 -108 -73 -144 -115 -97 -14 15 -20 39 -22 92 -4 93 15 134 77 162
l44 20 -7 104 c-3 57 -6 126 -6 153 0 43 -2 48 -22 47 -13 0 -42 -6 -65 -13z"/>
</g>
</svg>
